<svg width="64" height="32" viewBox="0 0 64 32" fill="none" xmlns="http://www.w3.org/2000/svg">
<path fill-rule="evenodd" clip-rule="evenodd" d="M7.17507 11.96V18.2384C7.17507 19.597 7.32282 20.441 7.63943 20.7703C8.06158 21.2438 8.67369 21.4702 9.51799 21.4702H10.3623V22.0466H0.885071V21.4702H1.70826C2.63698 21.4702 3.31242 21.1614 3.71346 20.5851C3.92453 20.2557 4.05118 19.4735 4.05118 18.2384V4.30236C4.05118 2.94375 3.90343 2.09977 3.60792 1.77041C3.18577 1.29695 2.55255 1.07052 1.70826 1.07052H0.885071V0.494141H8.9903C10.9744 0.494141 12.5152 0.69999 13.655 1.0911C14.7948 1.48222 15.7658 2.16152 16.5467 3.10843C17.3277 4.05534 17.7288 5.16693 17.7288 6.46378C17.7288 8.2135 17.1378 9.65445 15.9346 10.7455C14.7526 11.8365 13.064 12.3923 10.89 12.3923C10.3623 12.3923 9.79238 12.3511 9.15916 12.2687C8.54705 12.1864 7.87161 12.0835 7.17507 11.9394V11.96ZM7.17507 11.0542C7.74497 11.1572 8.27265 11.2395 8.71591 11.3012C9.15916 11.3424 9.5391 11.3836 9.85571 11.3836C10.9955 11.3836 11.9664 10.9513 12.7896 10.1073C13.6128 9.26334 14.0139 8.15175 14.0139 6.79314C14.0139 5.86682 13.8239 5.00225 13.4229 4.19943C13.0218 3.39662 12.473 2.79966 11.7554 2.40854C11.0377 2.01743 10.2145 1.81158 9.30691 1.81158C8.75812 1.81158 8.04047 1.9145 7.17507 2.09977V11.0542V11.0542Z" fill="white"/>
<path fill-rule="evenodd" clip-rule="evenodd" d="M35.1001 1.07052V0.494141H42.931V1.0911H42.0867C41.2213 1.0911 40.5458 1.44105 40.0815 2.16152C39.8493 2.49088 39.7437 3.25253 39.7437 4.44645V13.1745C39.7437 15.3359 39.5327 17.0239 39.0894 18.1972C38.6462 19.3911 37.7808 20.4204 36.4932 21.2644C35.2057 22.1084 33.4538 22.5406 31.2375 22.5406C28.8312 22.5406 26.9949 22.1289 25.7496 21.3055C24.5042 20.4821 23.6177 19.3911 23.09 18.012C22.7523 17.065 22.5623 15.2947 22.5623 12.701V4.30236C22.5623 2.98492 22.3724 2.12035 21.9924 1.70865C21.6125 1.29695 21.0215 1.0911 20.1772 1.0911H19.3329V0.494141H28.8735V1.0911H28.0292C27.1215 1.0911 26.4672 1.35871 26.0662 1.93509C25.7918 2.30562 25.6651 3.10843 25.6651 4.32294V13.6891C25.6651 14.5331 25.7496 15.48 25.8973 16.571C26.0662 17.6414 26.3406 18.506 26.7627 19.103C27.1849 19.6999 27.7759 20.2145 28.5568 20.5851C29.3378 20.9762 30.2876 21.182 31.4063 21.182C32.8627 21.182 34.1503 20.8733 35.2901 20.2557C36.4299 19.6382 37.2109 18.8559 37.633 17.8884C38.0552 16.9209 38.2662 15.3153 38.2662 13.0098V4.30236C38.2662 2.96434 38.1185 2.12035 37.8019 1.77041C37.3797 1.29695 36.7465 1.07052 35.9022 1.07052H35.0579H35.1001Z" fill="white"/>
<path fill-rule="evenodd" clip-rule="evenodd" d="M61.7587 0L62.2653 7.32825H61.7587C61.0833 5.14624 60.1335 3.5612 58.8881 2.59371C57.6428 1.62621 56.1442 1.15276 54.3923 1.15276C52.9148 1.15276 51.6061 1.52329 50.4241 2.24376C49.2421 2.96424 48.3133 4.11699 47.6379 5.72262C46.9625 7.30766 46.6248 9.28382 46.6248 11.6511C46.6248 13.6067 46.9414 15.2946 47.5957 16.715C48.2289 18.1354 49.1999 19.2469 50.4874 20.0086C51.775 20.7702 53.2314 21.1613 54.8988 21.1613C56.3342 21.1613 57.6006 20.8526 58.6982 20.2556C59.7958 19.6586 60.9989 18.4647 62.3075 16.6944L62.8141 17.0032C61.7165 18.9176 60.4079 20.3379 58.9304 21.2231C57.4528 22.1083 55.7009 22.5611 53.6535 22.5611C50.0019 22.5611 47.1524 21.2437 45.1472 18.5882C43.6486 16.6121 42.9099 14.3066 42.9099 11.6305C42.9099 9.48967 43.3953 7.49293 44.3874 5.70204C45.3794 3.91114 46.7303 2.51137 48.4611 1.52329C50.1919 0.535209 52.0916 0.0411699 54.139 0.0411699C55.7431 0.0411699 57.3051 0.411699 58.867 1.17334C59.3314 1.39978 59.648 1.52329 59.838 1.52329C60.1335 1.52329 60.3868 1.42036 60.5978 1.21451C60.8722 0.926323 61.0833 0.535209 61.21 0.020585H61.7799L61.7587 0Z" fill="white"/>
<path fill-rule="evenodd" clip-rule="evenodd" d="M39.9759 24.5579C40.8413 24.5579 41.4957 24.7226 41.96 25.0314C42.4244 25.3402 42.6566 25.793 42.6566 26.3694C42.6566 26.8017 42.5299 27.1516 42.2766 27.4398C42.0234 27.728 41.6434 27.9133 41.158 28.0162L42.5088 30.1159C42.6355 30.3217 42.7621 30.4658 42.8465 30.5276C42.931 30.6099 43.0365 30.6511 43.1209 30.6511V30.7952H41.2635V30.6511H41.3057C41.3057 30.6511 41.3901 30.6511 41.4323 30.6099C41.4746 30.5893 41.4746 30.5482 41.4746 30.507C41.4746 30.507 41.4746 30.4658 41.4535 30.4247V30.3835L39.9337 28.0986H37.8019V30.1982C37.8019 30.3423 37.823 30.4247 37.8652 30.4864C37.9074 30.5482 37.9918 30.5893 38.1396 30.6099V30.7952H36.2822V30.6099C36.4299 30.5687 36.5143 30.5276 36.5565 30.4864C36.5988 30.4247 36.6199 30.3423 36.6199 30.1982V25.1549C36.6199 25.0108 36.6199 24.9285 36.5565 24.8667C36.5143 24.805 36.4299 24.7638 36.2822 24.7226V24.5374H39.9548L39.9759 24.5579ZM40.3348 25.5254H37.823V27.1516H40.3348C40.778 27.1516 41.0946 27.0899 41.2846 26.9458C41.4746 26.8223 41.5801 26.5958 41.5801 26.3077C41.5801 26.0195 41.4746 25.8342 41.2635 25.7107C41.0524 25.5872 40.7569 25.5048 40.3348 25.5048V25.5254Z" fill="white"/>
<path fill-rule="evenodd" clip-rule="evenodd" d="M48.9677 30.1982C48.9677 30.3423 48.9888 30.4247 49.031 30.4864C49.0732 30.5482 49.1576 30.5893 49.3054 30.6099V30.7952H47.4479V30.6099C47.5957 30.5687 47.6801 30.5276 47.7223 30.4864C47.7646 30.4247 47.7857 30.3423 47.7857 30.1982V25.1549C47.7857 25.0108 47.7857 24.9285 47.7223 24.8667C47.6801 24.805 47.5957 24.7638 47.4479 24.7226V24.5374H49.3054V24.7226C49.1576 24.7638 49.0732 24.805 49.031 24.8667C48.9888 24.9079 48.9677 25.0108 48.9677 25.1549V30.1982V30.1982Z" fill="white"/>
<path fill-rule="evenodd" clip-rule="evenodd" d="M57.4106 30.9187C56.3342 30.9187 55.4476 30.6099 54.7511 29.9923C54.0546 29.3748 53.6957 28.6132 53.6957 27.6662C53.6957 26.7193 54.0334 25.9371 54.73 25.3401C55.4265 24.7226 56.313 24.4138 57.3895 24.4138C58.466 24.4138 59.3525 24.7226 60.0491 25.3401C60.7456 25.9577 61.0833 26.7399 61.0833 27.6662C61.0833 28.5926 60.7456 29.3748 60.0491 29.9923C59.3525 30.6099 58.466 30.9187 57.3895 30.9187H57.4106ZM54.8989 27.6662C54.8989 28.3867 55.131 28.9631 55.5954 29.3954C56.0598 29.8483 56.6719 30.0541 57.4317 30.0541C58.1916 30.0541 58.7826 29.8277 59.2259 29.3954C59.6902 28.9425 59.9224 28.3661 59.9224 27.6662C59.9224 26.9664 59.6902 26.39 59.2259 25.9371C58.7615 25.5048 58.1494 25.2784 57.4106 25.2784C56.6719 25.2784 56.0598 25.5048 55.5954 25.9371C55.131 26.3694 54.8989 26.9458 54.8989 27.6662V27.6662Z" fill="white"/>
</svg>
